<svg width="79" height="54" viewBox="0 0 79 54" fill="none" xmlns="http://www.w3.org/2000/svg">
<path d="M1 46.9716C2.33421 44.4245 4.93161 38.192 8.57073 38.8536C13.9897 39.8389 14.3573 44.916 17.9657 48.1574C23.0924 52.7627 31.522 50.7044 34.521 44.144C36.0797 40.7344 35.27 42.0183 35.6612 45.1474C36.0258 48.0648 37.2553 51.3116 40.8603 50.757C44.2931 50.2289 46.001 46.6507 47.6101 44.0072C50.4659 39.3155 53.8843 47.1045 56.3666 49.4344C63.598 56.2217 73.056 53.2488 76.9353 44.4633C82.4045 32.0772 71.7516 15.6547 60.0152 11.2159C49.0604 7.07275 35.5077 7.58668 25.6277 1" stroke="#BDCAC0" stroke-linecap="round" stroke-dasharray="5 5"/>
</svg>
