<svg width="42" height="29" viewBox="0 0 42 29" fill="none" xmlns="http://www.w3.org/2000/svg">
<path d="M2 18.6758L2 6.85414C2 0.381955 12 0.381955 12 6.85414L12 18.6758M2 10.3242L2 22.1459C2 28.618 12 28.618 12 22.1459L12 10.3242" stroke="#FF6477" stroke-width="4"/>
<path d="M19.7131 1.39702V0.636364H23.2969V1.39702H21.9609V5H21.049V1.39702H19.7131ZM28.3871 5V0.636364H29.3097V2.43679H31.1825V0.636364H32.103V5H31.1825V3.19744H29.3097V5H28.3871ZM37.3636 5V0.636364H40.304V1.39702H38.2862V2.43679H40.1527V3.19744H38.2862V4.23935H40.3125V5H37.3636Z" fill="black"/>
<path d="M19.5057 14.1818H21.0227L22.625 18.0909H22.6932L24.2955 14.1818H25.8125V20H24.6193V16.2131H24.571L23.0653 19.9716H22.2528L20.7472 16.1989H20.6989V20H19.5057V14.1818ZM27.3088 20H25.9907L27.9992 14.1818H29.5844L31.5901 20H30.2719L28.8145 15.5114H28.7691L27.3088 20ZM27.2264 17.7131H30.3401V18.6733H27.2264V17.7131ZM31.7704 20V14.1818H34.0658C34.5052 14.1818 34.8802 14.2604 35.1908 14.4176C35.5033 14.5729 35.741 14.7936 35.9039 15.0795C36.0687 15.3636 36.1511 15.6979 36.1511 16.0824C36.1511 16.4687 36.0677 16.8011 35.9011 17.0795C35.7344 17.3561 35.4929 17.5682 35.1766 17.7159C34.8622 17.8636 34.4815 17.9375 34.0346 17.9375H32.4976V16.9489H33.8357C34.0706 16.9489 34.2656 16.9167 34.4209 16.8523C34.5762 16.7879 34.6918 16.6913 34.7675 16.5625C34.8452 16.4337 34.884 16.2737 34.884 16.0824C34.884 15.8892 34.8452 15.7263 34.7675 15.5938C34.6918 15.4612 34.5753 15.3608 34.4181 15.2926C34.2628 15.2225 34.0668 15.1875 33.83 15.1875H33.0005V20H31.7704ZM34.9124 17.3523L36.3584 20H35.0005L33.5857 17.3523H34.9124ZM37.5032 20H36.185L38.1936 14.1818H39.7788L41.7845 20H40.4663L39.0089 15.5114H38.9634L37.5032 20ZM37.4208 17.7131H40.5345V18.6733H37.4208V17.7131ZM19.5057 28V22.1818H20.7358V24.5824H23.233V22.1818H24.4602V28H23.233V25.5966H20.7358V28H19.5057ZM28.5482 22.1818H29.7783V25.9602C29.7783 26.3845 29.677 26.7557 29.4743 27.0739C29.2736 27.392 28.9923 27.6402 28.6306 27.8182C28.2688 27.9943 27.8474 28.0824 27.3664 28.0824C26.8834 28.0824 26.4611 27.9943 26.0993 27.8182C25.7376 27.6402 25.4563 27.392 25.2556 27.0739C25.0548 26.7557 24.9544 26.3845 24.9544 25.9602V22.1818H26.1845V25.8551C26.1845 26.0767 26.2328 26.2737 26.3294 26.446C26.4279 26.6184 26.5662 26.7538 26.7442 26.8523C26.9222 26.9508 27.1296 27 27.3664 27C27.605 27 27.8124 26.9508 27.9885 26.8523C28.1666 26.7538 28.3039 26.6184 28.4005 26.446C28.4989 26.2737 28.5482 26.0767 28.5482 25.8551V22.1818ZM30.2704 28V22.1818H32.5999C33.0279 22.1818 33.385 22.2453 33.6709 22.3722C33.9569 22.4991 34.1719 22.6752 34.3158 22.9006C34.4598 23.1241 34.5317 23.3816 34.5317 23.6733C34.5317 23.9006 34.4863 24.1004 34.3954 24.2727C34.3045 24.4432 34.1795 24.5833 34.0204 24.6932C33.8632 24.8011 33.6832 24.8778 33.4806 24.9233V24.9801C33.7022 24.9896 33.9096 25.0521 34.1028 25.1676C34.2978 25.2831 34.456 25.4451 34.5772 25.6534C34.6984 25.8598 34.759 26.1061 34.759 26.392C34.759 26.7008 34.6823 26.9763 34.5289 27.2188C34.3774 27.4593 34.1529 27.6496 33.8556 27.7898C33.5582 27.9299 33.1918 28 32.7562 28H30.2704ZM31.5005 26.9943H32.5033C32.8461 26.9943 33.0961 26.929 33.2533 26.7983C33.4105 26.6657 33.4891 26.4896 33.4891 26.2699C33.4891 26.1089 33.4503 25.9669 33.3726 25.8438C33.295 25.7206 33.1842 25.6241 33.0403 25.554C32.8982 25.4839 32.7287 25.4489 32.5317 25.4489H31.5005V26.9943ZM31.5005 24.6165H32.4124C32.581 24.6165 32.7306 24.5871 32.8613 24.5284C32.9939 24.4678 33.098 24.3826 33.1738 24.2727C33.2514 24.1629 33.2903 24.0312 33.2903 23.8778C33.2903 23.6676 33.2154 23.4981 33.0658 23.3693C32.9181 23.2405 32.7079 23.1761 32.4351 23.1761H31.5005V24.6165ZM35.0394 28V22.1818H37.369C37.797 22.1818 38.154 22.2453 38.44 22.3722C38.726 22.4991 38.9409 22.6752 39.0849 22.9006C39.2288 23.1241 39.3008 23.3816 39.3008 23.6733C39.3008 23.9006 39.2553 24.1004 39.1644 24.2727C39.0735 24.4432 38.9485 24.5833 38.7894 24.6932C38.6322 24.8011 38.4523 24.8778 38.2497 24.9233V24.9801C38.4713 24.9896 38.6786 25.0521 38.8718 25.1676C39.0669 25.2831 39.225 25.4451 39.3463 25.6534C39.4675 25.8598 39.5281 26.1061 39.5281 26.392C39.5281 26.7008 39.4514 26.9763 39.298 27.2188C39.1464 27.4593 38.922 27.6496 38.6247 27.7898C38.3273 27.9299 37.9608 28 37.5252 28H35.0394ZM36.2695 26.9943H37.2724C37.6152 26.9943 37.8652 26.929 38.0224 26.7983C38.1796 26.6657 38.2582 26.4896 38.2582 26.2699C38.2582 26.1089 38.2194 25.9669 38.1417 25.8438C38.0641 25.7206 37.9533 25.6241 37.8093 25.554C37.6673 25.4839 37.4978 25.4489 37.3008 25.4489H36.2695V26.9943ZM36.2695 24.6165H37.1815C37.35 24.6165 37.4997 24.5871 37.6303 24.5284C37.7629 24.4678 37.8671 24.3826 37.9428 24.2727C38.0205 24.1629 38.0593 24.0312 38.0593 23.8778C38.0593 23.6676 37.9845 23.4981 37.8349 23.3693C37.6872 23.2405 37.4769 23.1761 37.2042 23.1761H36.2695V24.6165ZM40.4932 28.0739C40.3057 28.0739 40.1447 28.0076 40.0102 27.875C39.8776 27.7405 39.8113 27.5795 39.8113 27.392C39.8113 27.2064 39.8776 27.0473 40.0102 26.9148C40.1447 26.7822 40.3057 26.7159 40.4932 26.7159C40.675 26.7159 40.8341 26.7822 40.9704 26.9148C41.1068 27.0473 41.175 27.2064 41.175 27.392C41.175 27.517 41.1428 27.6316 41.0784 27.7358C41.0159 27.8381 40.9335 27.9205 40.8312 27.983C40.7289 28.0436 40.6163 28.0739 40.4932 28.0739Z" fill="black"/>
</svg>
